<svg width="96" height="96" viewBox="0 0 48 48" fill="none" xmlns="http://www.w3.org/2000/svg">
<path fill-rule="evenodd" clip-rule="evenodd" d="M44.9931 21.6061H45.0001C46.2857 21.6061 47.3311 22.6468 47.3334 23.9324C47.3521 30.1648 44.9417 36.0331 40.5457 40.4524C36.1521 44.8718 30.3001 47.3148 24.0677 47.3335H24.0001C17.7911 47.3335 11.9507 44.9254 7.54773 40.5458C3.1284 36.1521 0.6854 30.3001 0.666734 24.0678C0.648067 17.8331 3.0584 11.9671 7.4544 7.54778C11.8481 3.12844 17.7001 0.685445 23.9324 0.666779C25.7874 0.694779 27.6774 0.881445 29.4881 1.31545C30.7387 1.61878 31.5111 2.87878 31.2077 4.13178C30.9067 5.38245 29.6397 6.15245 28.3937 5.85378C26.9447 5.50378 25.4071 5.35678 23.9464 5.33345C18.9601 5.34745 14.2771 7.30278 10.7631 10.8378C7.24673 14.3728 5.3194 19.0674 5.3334 24.0538C5.3474 29.0401 7.30273 33.7208 10.8377 37.2371C14.3611 40.7394 19.0324 42.6668 24.0001 42.6668H24.0537C29.0401 42.6528 33.7231 40.6974 37.2371 37.1624C40.7534 33.6251 42.6807 28.9328 42.6667 23.9464C42.6644 22.6584 43.7051 21.6084 44.9931 21.6061ZM15.3503 22.3505C16.2627 21.4382 17.7373 21.4382 18.6497 22.3505L23.8857 27.5865L38.5787 10.7958C39.428 9.83216 40.9003 9.7295 41.871 10.5788C42.8393 11.4258 42.9373 12.9005 42.088 13.8712L25.7547 32.5378C25.33 33.0232 24.7233 33.3102 24.077 33.3335H24C23.3817 33.3335 22.789 33.0885 22.3503 32.6498L15.3503 25.6498C14.438 24.7375 14.438 23.2628 15.3503 22.3505Z" fill="#2E1AAD"/>
</svg>
